<svg width="919.73" height="776.03" xmlns="http://www.w3.org/2000/svg">
 <g>
  <title>Layer 1</title>
  <g id="Konrad" stroke="null">
   <path id="InCu_Rnd_Mid" data-name="InCu Rnd Mid" class="cls-2" d="m112.25523,736.01013c-2.59071,0 -5.00999,-1.50659 -6.31612,-3.94019l-11.94696,-22.41272l-86.71259,0c-4.02518,0 -7.27956,-3.54614 -7.27956,-7.88037l0,-627.04512c0,-4.35738 3.2758,-7.88037 7.27956,-7.88037l404.85112,0l0,-18.05531c0,-4.35737 3.27573,-7.88036 7.2796,-7.88036l119.10657,0c4.02515,0 7.2796,3.54616 7.2796,7.88036l0,18.07848l239.77618,0c4.02515,0 7.2796,3.52298 7.2796,7.85719l0,137.95271l20.59686,3.94016c3.96094,0.76486 6.59448,4.84412 5.90936,9.13196l-13.57434,83.41597l106.28174,20.30353c1.90558,0.37085 3.5755,1.50653 4.71033,3.24484c1.11328,1.71512 1.5415,3.82431 1.19904,5.88708l-40.72284,249.96979c-0.62085,3.77795 -3.63983,6.51294 -7.17249,6.51294c-0.42822,0 -0.83502,-0.04633 -1.26324,-0.11591l-106.47437,-20.32666l-3.98236,24.3595c-0.62097,3.77795 -3.63977,6.513 -7.17255,6.513c-0.40686,0 -0.83508,-0.04651 -1.26318,-0.11597l-116.94409,-22.31995c-1.90558,-0.37085 -3.57568,-1.50659 -4.71039,-3.24487c-1.11334,-1.71515 -1.54163,-3.82434 -1.19897,-5.88708l3.08313,-18.95923l-88.23273,-6.69836l-93.73514,0l0,82.51208c0,4.3573 -3.27591,7.88037 -7.27963,7.88037l-59.56406,0c-35.69122,0.13904 -73.99466,5.86395 -110.77789,16.52557c-34.27817,9.94318 -69.99086,26.19061 -103.28416,47.00397l-1.17754,0.74182c-0.64244,0.39398 -1.28471,0.81116 -1.90559,1.22833c-3.04036,1.9469 -6.08063,3.94019 -9.29221,6.16528c-0.21405,0.13898 -0.27835,0.18549 -0.34251,0.23175l-0.21419,0.16223l-0.23546,0.11584l-0.17134,0.1391l-38.02493,23.91925c-1.11339,0.69519 -2.37667,1.06604 -3.66125,1.06604l0,0.02325l-0.00001,0.00006z" fill="#161b22" stroke="null"/>
   <g id="Midi_Switchholes" data-name="Midi Switchholes" stroke="null">
    <rect class="cls-4" x="205.75493" y="145.58545" width="84.97827" height="91.99165" fill="none" stroke-width="0.28px" opacity="0.6" stroke-linecap="round" stroke-linejoin="round" id="svg_56" stroke="#fff"/>
    <rect class="cls-4" x="205.58364" y="271.04547" width="84.97827" height="91.99165" fill="none" stroke-width="0.28px" opacity="0.6" stroke-linecap="round" stroke-linejoin="round" id="svg_57" stroke="#fff"/>
    <rect class="cls-4" x="205.58364" y="396.52867" width="84.97827" height="91.99165" fill="none" stroke-width="0.28px" opacity="0.6" stroke-linecap="round" stroke-linejoin="round" id="svg_58" stroke="#fff"/>
    <rect class="cls-4" x="320.85777" y="376.48009" width="84.97827" height="91.99165" fill="none" stroke-width="0.28px" opacity="0.6" stroke-linecap="round" stroke-linejoin="round" id="svg_59" stroke="#fff"/>
    <rect class="cls-4" x="321.02905" y="251.5068" width="84.97827" height="91.99165" fill="none" stroke-width="0.28px" opacity="0.6" stroke-linecap="round" stroke-linejoin="round" id="svg_60" stroke="#fff"/>
    <rect class="cls-4" x="321.02905" y="126.11631" width="84.97827" height="91.99165" fill="none" stroke-width="0.28px" opacity="0.6" stroke-linecap="round" stroke-linejoin="round" id="svg_61" stroke="#fff"/>
    <rect class="cls-4" x="436.47446" y="66.99041" width="84.97827" height="91.99165" fill="none" stroke-width="0.28px" opacity="0.6" stroke-linecap="round" stroke-linejoin="round" id="svg_62" stroke="#fff"/>
    <rect class="cls-4" x="436.47446" y="191.89417" width="84.97827" height="91.99165" fill="none" stroke-width="0.28px" opacity="0.6" stroke-linecap="round" stroke-linejoin="round" id="svg_63" stroke="#fff"/>
    <rect class="cls-4" x="436.64575" y="317.37737" width="84.97827" height="91.99165" fill="none" stroke-width="0.28px" opacity="0.6" stroke-linecap="round" stroke-linejoin="round" id="svg_64" stroke="#fff"/>
    <rect class="cls-4" x="338.75695" y="521.01523" width="84.97827" height="91.99165" fill="none" stroke-width="0.28px" opacity="0.6" stroke-linecap="round" stroke-linejoin="round" id="svg_65" stroke="#fff"/>
    <rect class="cls-4" x="53.90445" y="401.46827" width="39.69" height="39.69" transform="matrix(2.0681 -0.599879 0.554144 2.23878 -132.875 -313.071)" fill="none" stroke-width="0.28px" opacity="0.6" stroke-linecap="round" stroke-linejoin="round" id="svg_66" stroke="#fff"/>
    <rect class="cls-4" x="-20.82512" y="575.41355" width="39.69" height="39.69" transform="matrix(1.8542 -1.15888 1.07052 2.00723 -501.582 -556.126)" fill="none" stroke-width="0.28px" opacity="0.6" stroke-linecap="round" stroke-linejoin="round" id="svg_67" stroke="#fff"/>
    <rect class="cls-4" x="272.9072" y="5.79088" width="39.69" height="39.69" transform="matrix(2.13583 0.161678 -0.149352 2.31211 -10.284 75.0726)" fill="none" stroke-width="0.28px" opacity="0.6" stroke-linecap="round" stroke-linejoin="round" id="svg_68" stroke="#fff"/>
    <rect class="cls-4" x="272.8872" y="59.95088" width="39.69" height="39.69" transform="matrix(2.13583 0.161678 -0.149352 2.31211 -10.2048 74.4701)" fill="none" stroke-width="0.28px" opacity="0.6" stroke-linecap="round" stroke-linejoin="round" id="svg_69" stroke="#fff"/>
    <rect class="cls-4" x="272.9472" y="114.35088" width="39.69" height="39.69" transform="matrix(2.13583 0.161678 -0.149352 2.31211 -10.1269 73.8644)" fill="none" stroke-width="0.28px" opacity="0.6" stroke-linecap="round" stroke-linejoin="round" id="svg_70" stroke="#fff"/>
    <rect class="cls-4" x="360.77535" y="-42.46652" width="39.69" height="39.69" transform="matrix(2.10852 0.402474 -0.371789 2.28254 -67.4238 175.376)" fill="none" stroke-width="0.28px" opacity="0.6" stroke-linecap="round" stroke-linejoin="round" id="svg_71" stroke="#fff"/>
    <rect class="cls-4" x="360.48535" y="13.03349" width="39.69" height="39.69" transform="matrix(2.10852 0.402474 -0.371789 2.28254 -66.2253 171.811)" fill="none" stroke-width="0.28px" opacity="0.6" stroke-linecap="round" stroke-linejoin="round" id="svg_72" stroke="#fff"/>
    <rect class="cls-4" x="360.27535" y="68.79349" width="39.69" height="39.69" transform="matrix(2.10852 0.402474 -0.371789 2.28254 -65.0252 168.226)" fill="none" stroke-width="0.28px" opacity="0.6" stroke-linecap="round" stroke-linejoin="round" id="svg_73" stroke="#fff"/>
    <rect class="cls-4" x="416.06535" y="-1.34651" width="39.69" height="39.69" transform="matrix(2.10852 0.402474 -0.371789 2.28254 -69.8378 171.453)" fill="none" stroke-width="0.28px" opacity="0.6" stroke-linecap="round" stroke-linejoin="round" id="svg_74" stroke="#fff"/>
    <rect class="cls-4" x="415.86535" y="54.40348" width="39.69" height="39.69" transform="matrix(2.10852 0.402474 -0.371789 2.28254 -68.6377 167.868)" fill="none" stroke-width="0.28px" opacity="0.6" stroke-linecap="round" stroke-linejoin="round" id="svg_75" stroke="#fff"/>
   </g>
   <g id="Midi_Keycaps" data-name="Midi Keycaps" stroke="null">
    <rect class="cls-5" x="193.61518" y="132.09612" width="109.23636" height="118.25181" fill="none" stroke-width="0.28px" stroke-linecap="round" stroke-linejoin="round" id="svg_76" stroke="#fff"/>
    <rect class="cls-5" x="193.44389" y="257.57932" width="109.23636" height="118.25181" fill="none" stroke-width="0.28px" stroke-linecap="round" stroke-linejoin="round" id="svg_77" stroke="#fff"/>
    <rect class="cls-5" x="193.44389" y="383.03934" width="109.23636" height="118.25181" fill="none" stroke-width="0.28px" stroke-linecap="round" stroke-linejoin="round" id="svg_78" stroke="#fff"/>
    <rect class="cls-5" x="308.71802" y="363.01394" width="109.23636" height="118.25181" fill="none" stroke-width="0.28px" stroke-linecap="round" stroke-linejoin="round" id="svg_79" stroke="#fff"/>
    <rect class="cls-5" x="308.8893" y="238.04065" width="109.23636" height="118.25181" fill="none" stroke-width="0.28px" stroke-linecap="round" stroke-linejoin="round" id="svg_80" stroke="#fff"/>
    <rect class="cls-5" x="308.8893" y="112.65016" width="109.23636" height="118.25181" fill="none" stroke-width="0.28px" stroke-linecap="round" stroke-linejoin="round" id="svg_81" stroke="#fff"/>
    <rect class="cls-5" x="424.33471" y="53.50108" width="109.23636" height="118.25181" fill="none" stroke-width="0.28px" stroke-linecap="round" stroke-linejoin="round" id="svg_82" stroke="#fff"/>
    <rect class="cls-5" x="424.33471" y="178.42802" width="109.23636" height="118.25181" fill="none" stroke-width="0.28px" stroke-linecap="round" stroke-linejoin="round" id="svg_83" stroke="#fff"/>
    <rect class="cls-5" x="424.50599" y="303.88804" width="109.23636" height="118.25181" fill="none" stroke-width="0.28px" stroke-linecap="round" stroke-linejoin="round" id="svg_84" stroke="#fff"/>
    <rect class="cls-5" x="326.61719" y="507.54908" width="109.23636" height="118.25181" fill="none" stroke-width="0.28px" stroke-linecap="round" stroke-linejoin="round" id="svg_85" stroke="#fff"/>
    <rect class="cls-5" x="48.23445" y="395.65827" width="51.02" height="51.02" transform="matrix(2.0681 -0.599879 0.554144 2.23878 -132.867 -313.047)" fill="none" stroke-width="0.28px" stroke-linecap="round" stroke-linejoin="round" id="svg_86" stroke="#fff"/>
    <rect class="cls-5" x="-26.50512" y="569.57356" width="51.02" height="51.02" transform="matrix(1.8542 -1.15888 1.07052 2.00723 -501.511 -556.072)" fill="none" stroke-width="0.28px" stroke-linecap="round" stroke-linejoin="round" id="svg_87" stroke="#fff"/>
    <rect class="cls-5" x="267.2372" y="-0.01912" width="51.02" height="51.02" transform="matrix(2.13583 0.161678 -0.149352 2.31211 -10.2841 75.0742)" fill="none" stroke-width="0.28px" stroke-linecap="round" stroke-linejoin="round" id="svg_88" stroke="#fff"/>
    <rect class="cls-5" x="267.2172" y="54.14088" width="51.02" height="51.02" transform="matrix(2.13583 0.161678 -0.149352 2.31211 -10.2048 74.4718)" fill="none" stroke-width="0.28px" stroke-linecap="round" stroke-linejoin="round" id="svg_89" stroke="#fff"/>
    <rect class="cls-5" x="267.2772" y="108.54088" width="51.02" height="51.02" transform="matrix(2.13583 0.161678 -0.149352 2.31211 -10.127 73.8661)" fill="none" stroke-width="0.28px" stroke-linecap="round" stroke-linejoin="round" id="svg_90" stroke="#fff"/>
    <rect class="cls-5" x="355.10535" y="-48.28651" width="51.02" height="51.02" transform="matrix(2.10852 0.402474 -0.371789 2.28254 -67.4281 175.384)" fill="none" stroke-width="0.28px" stroke-linecap="round" stroke-linejoin="round" id="svg_91" stroke="#fff"/>
    <rect class="cls-5" x="354.82535" y="7.21348" width="51.02" height="51.02" transform="matrix(2.10852 0.402474 -0.371789 2.28254 -66.2297 171.819)" fill="none" stroke-width="0.28px" stroke-linecap="round" stroke-linejoin="round" id="svg_92" stroke="#fff"/>
    <rect class="cls-5" x="354.61535" y="62.97349" width="51.02" height="51.02" transform="matrix(2.10852 0.402474 -0.371789 2.28254 -65.0296 168.234)" fill="none" stroke-width="0.28px" stroke-linecap="round" stroke-linejoin="round" id="svg_93" stroke="#fff"/>
    <rect class="cls-5" x="410.39535" y="-7.15651" width="51.02" height="51.02" transform="matrix(2.10852 0.402474 -0.371789 2.28254 -69.8388 171.465)" fill="none" stroke-width="0.28px" stroke-linecap="round" stroke-linejoin="round" id="svg_94" stroke="#fff"/>
    <rect class="cls-5" x="410.18535" y="48.58349" width="51.02" height="51.02" transform="matrix(2.10852 0.402474 -0.371789 2.28254 -68.6424 167.88)" fill="none" stroke-width="0.28px" stroke-linecap="round" stroke-linejoin="round" id="svg_95" stroke="#fff"/>
   </g>
   <path id="Ring-2" data-name="Ring" class="cls-3" d="m93.84225,372.70218c-49.43684,0 -89.51729,43.38834 -89.51729,96.90527s40.08046,96.90524 89.51729,96.90524s89.51731,-43.38831 89.51731,-96.90524s-40.0804,-96.90527 -89.51731,-96.90527zm0,177.40073c-41.06532,0 -74.33726,-36.04095 -74.33726,-80.47232s33.29337,-80.47241 74.33726,-80.47241s74.33721,36.04111 74.33721,80.47241s-33.2933,80.47232 -74.33721,80.47232z" stroke-miterlimit="10" fill="none" stroke-width="0.28px" stroke="#fff"/>
   <rect id="Schwarz-2" data-name="Schwarz" class="cls-3" x="694.45026" y="-280.52" width="35.01" height="67.07" transform="matrix(0 2.31775 -2.14105 0 -428.852 -1352.4)" stroke-miterlimit="10" fill="none" stroke-width="0.28px" stroke="#fff"/>
   <path class="cls-1" d="m151.30811,283.76993l0,-4.65866l-17.23543,0l0,-13.99927l-4.30354,0l0,-4.65869l-60.33478,0l0,4.65869l-4.30354,0l0,13.99927l-17.23542,0l0,4.65866l-4.30353,0l0,27.9985l4.30353,0l0,4.65866l17.23542,0l0,18.65796l68.94184,0l0,-18.65796l17.23543,0l0,-4.65866l4.30353,0l0,-27.9985l-4.30353,0l0.00002,0zm-25.86394,0l0,9.34058l-4.30353,0l0,4.65869l-8.62836,0l0,-4.65869l-4.30354,0l0,-9.34058l4.30354,0l0,-4.65866l8.62836,0l0,4.65866l4.30353,0zm-47.40274,0l0,-4.65866l8.62836,0l0,4.65866l4.30354,0l0,9.34058l-4.30354,0l0,4.65869l-8.62836,0l0,-4.65869l-4.30354,0l0,-9.34058l4.30354,0zm38.77438,46.65643l-8.62849,0l0,-9.34055l-4.30353,0l0,-9.34055l-8.62836,0l0,9.34055l-4.30354,0l0,9.34055l-8.62836,0l0,-9.34055l4.3034,0l0,-9.34055l4.30354,0l0,-9.34061l17.23542,0l0,9.34061l4.30354,0l0,9.34055l4.30354,0l0,9.34055l0.04285,0l-0.00002,0z" fill="#fff" id="svg_96" stroke="null"/>
  </g>
 </g>

</svg>